# xmcd
#
# Track frame offsets:
#	150
#	14140
#	27892
#	44417
#	60140
#	72745
#	86570
#	105157
#	116135
#	130122
#	142330
#	156630
#	170102
#
# Disc length: 2513 seconds
# Revision: 1
# Processed by: cddbd v1.5.2PL0 Copyright (c) Steve Scherf et al.
# Submitted via: dBpowerAMP V12.0
#
DISCID=bf09cf0d
DTITLE=Various Artist - Country Music That Changed Our Lives
DYEAR=1999
DGENRE=Country
TTITLE0=Mark Willis - Jacob's Ladder
TTITLE1=Patty Loveless - Hurt Me Bad (In a Real Good Way)
TTITLE2=Mark Chesnutt - Too Cold at Home
TTITLE3=George Jones - Don't Need Your Rockin' Chair
TTITLE4=Patsy Cline - I Fall to Pieces
TTITLE5=Chely Wright - Right in the Middle of It
TTITLE6=Tracy Byrd - The Keeper of the Stars
TTITLE7=The Statler Brothers - Bed of Roses
TTITLE8=Sammy Kershaw - Don't Go Near the Water
TTITLE9=Hank Williams - Your Cheatin' Heart
TTITLE10=Kentucky Headhunters - Oh, Lonesome Me
TTITLE11=Loretta Lynn - Coal Miner's Daughter
TTITLE12=Billy Ray Cyrus - Some Gave All
EXTD=
EXTT0=
EXTT1=
EXTT2=
EXTT3=
EXTT4=
EXTT5=
EXTT6=
EXTT7=
EXTT8=
EXTT9=
EXTT10=
EXTT11=
EXTT12=
PLAYORDER=
